# xmcd
#
# Track frame offsets:
#	150
#	33040
#	47957
#	69052
#	85462
#	127900
#	147550
#	161625
#	200632
#	216377
#
# Disc length: 3337 seconds
#
# Revision: 4
# Processed by: cddbd v1.5.2PL0 Copyright (c) Steve Scherf et al.
# Submitted via: audiograbber 1.83.01
#
DISCID=910d070a
DTITLE=Don McLean - Starry, Starry Night  [CD2)
DYEAR=1900
DGENRE=Oldies
TTITLE0=Don McLean and Nanci Griffith_And I Love You So
TTITLE1=Don McLean and Nanci Griffith_Raining In My Heart
TTITLE2=Jerusalem
TTITLE3=You're My Little Darlin'
TTITLE4=American Pie
TTITLE5=Superman's Ghost
TTITLE6=Fashion Victim
TTITLE7=Headroom - Dreidel
TTITLE8=It Was A Very Good Year
TTITLE9=Vincent (Starry, Starry Night)
EXTD=
EXTT0=
EXTT1=
EXTT2=
EXTT3=
EXTT4=
EXTT5=
EXTT6=
EXTT7=
EXTT8=
EXTT9=
PLAYORDER=
